<?xml version="1.0" standalone="no"?>
<!DOCTYPE svg PUBLIC "-//W3C//DTD SVG 20010904//EN"
 "http://www.w3.org/TR/2001/REC-SVG-20010904/DTD/svg10.dtd">
<svg version="1.0" xmlns="http://www.w3.org/2000/svg"
 width="500.000000pt" height="166.000000pt" viewBox="0 0 500.000000 166.000000"
 preserveAspectRatio="xMidYMid meet">

<g transform="translate(0.000000,166.000000) scale(0.100000,-0.100000)"
fill="#000000" stroke="none">
<path d="M0 830 l0 -830 2500 0 2500 0 0 830 0 830 -2500 0 -2500 0 0 -830z
m1703 452 l27 -28 0 -208 0 -208 -101 -102 -100 -101 -29 55 c-47 89 -55 118
-37 138 8 9 27 39 41 67 19 35 35 52 58 60 44 14 55 36 33 68 -24 37 -71 37
-87 2 -6 -14 -15 -25 -20 -25 -5 0 -41 -14 -80 -31 -64 -28 -77 -30 -137 -24
-64 6 -67 6 -95 -24 -21 -22 -30 -42 -33 -78 -9 -92 -35 -123 -102 -123 -28 0
-28 -1 -24 -44 6 -49 6 -49 -76 -61 -43 -7 -44 -7 -107 56 -67 66 -81 98 -64
143 10 26 126 156 139 156 4 0 5 -18 3 -40 -3 -26 2 -49 12 -65 24 -37 39 -30
16 8 -27 44 -25 63 9 98 40 40 97 40 177 -1 65 -33 84 -30 40 5 -40 32 -106
49 -168 43 l-52 -5 151 148 152 149 213 0 214 0 27 -28z m1915 -47 c17 -19 32
-41 32 -49 0 -8 -32 -34 -70 -57 -39 -23 -73 -45 -75 -50 -3 -4 6 -15 19 -25
35 -22 76 -8 96 34 11 24 22 32 43 32 22 0 27 -4 27 -22 -1 -60 -70 -118 -139
-118 -55 0 -98 27 -129 81 -44 76 -20 158 59 198 56 28 94 22 137 -24z m-596
-296 l3 -111 40 56 c36 51 43 56 78 56 34 0 37 -2 28 -19 -6 -10 -26 -37 -46
-60 -19 -24 -35 -47 -35 -53 0 -6 19 -38 43 -72 64 -92 63 -86 19 -86 -35 0
-42 5 -78 55 -21 30 -42 55 -46 55 -5 0 -8 -25 -8 -55 l0 -55 -40 0 -40 0 0
200 0 200 40 0 39 0 3 -111z m246 83 c1 -4 10 -23 20 -42 l17 -35 168 -1 c92
-1 170 -4 173 -7 3 -2 0 -43 -7 -91 -14 -99 3 -89 -171 -105 -85 -7 -100 -11
-117 -32 -39 -46 -32 -49 123 -49 l143 0 -4 -25 c-10 -49 -62 -61 -73 -16 -5
21 -11 23 -75 24 -66 2 -69 1 -75 -23 -3 -14 -14 -26 -23 -28 -23 -5 -49 17
-43 35 3 8 0 22 -6 33 -10 15 -7 24 14 53 l27 34 -52 136 c-35 95 -56 137 -66
137 -9 0 -23 5 -31 11 -11 8 -6 9 20 5 19 -4 36 -10 38 -14z m-1330 -129 c24
-73 47 -133 50 -133 4 0 27 61 52 135 l45 135 48 0 47 0 0 -180 c0 -99 1 -183
3 -187 1 -5 -15 -9 -35 -11 l-38 -3 -1 128 c0 70 -3 121 -6 113 -3 -8 -24 -66
-45 -127 -40 -112 -40 -113 -72 -113 -32 0 -32 1 -71 113 -21 61 -42 119 -46
127 -5 9 -9 -40 -9 -112 l0 -128 -35 0 -35 0 0 191 0 190 52 -3 51 -3 45 -132z
m553 21 c71 -63 63 -198 -16 -250 -34 -22 -115 -23 -149 0 -90 58 -87 215 4
264 36 19 134 11 161 -14z m189 5 l0 -20 26 20 c39 31 103 29 135 -5 22 -24
24 -35 28 -145 l3 -120 -38 3 -39 3 -5 104 c-5 114 -14 130 -64 117 -36 -9
-46 -40 -46 -142 l0 -84 -35 0 -35 0 0 145 0 145 35 0 c29 0 35 -4 35 -21z
m1090 -71 c18 -51 36 -97 40 -101 4 -5 23 36 41 90 l34 98 38 3 c20 2 37 2 37
0 0 -13 -130 -342 -144 -363 -20 -31 -53 -45 -105 -45 -46 0 -51 4 -42 38 6
23 12 27 38 24 34 -4 63 19 63 49 0 10 -22 78 -50 150 -27 72 -50 135 -50 140
0 5 15 9 34 9 33 0 34 -1 66 -92z m-2437 5 c66 -6 67 -6 67 -34 0 -18 14 -47
35 -75 20 -26 43 -60 51 -77 l16 -30 -124 7 c-117 7 -183 2 -174 -13 2 -3 74
-6 160 -6 l156 0 -138 -137 c-135 -135 -139 -138 -182 -138 -42 0 -47 4 -167
122 -143 142 -146 130 37 146 73 6 108 5 113 -2 5 -6 6 3 3 22 -3 17 -2 32 3
32 4 0 30 16 56 36 46 36 47 38 42 82 -5 43 -25 72 -50 72 -5 0 -6 -23 -2 -55
6 -51 5 -57 -22 -83 -15 -16 -37 -33 -48 -39 -16 -9 -17 -13 -6 -27 12 -14 9
-16 -20 -16 -19 0 -50 -3 -70 -6 l-35 -6 4 35 c4 33 6 35 55 41 59 8 102 29
117 55 5 11 10 41 10 67 0 43 1 46 23 40 12 -4 52 -10 90 -13z"/>
<path d="M1516 1199 c-46 -36 -26 -110 34 -124 38 -9 80 27 80 68 0 38 -7 50
-37 66 -31 16 -47 14 -77 -10z"/>
<path d="M1512 885 c-10 -22 -10 -31 0 -44 7 -9 14 -18 15 -20 6 -9 163 45
163 57 0 16 -6 15 -33 -2 -12 -8 -41 -18 -64 -22 -34 -5 -43 -3 -43 8 0 8 -6
22 -13 32 -12 16 -14 16 -25 -9z"/>
<path d="M3480 1190 c-6 -12 -10 -32 -8 -46 l3 -25 48 31 c55 35 57 54 4 58
-28 2 -38 -1 -47 -18z"/>
<path d="M3314 914 c3 -9 6 -20 6 -25 0 -5 5 -9 10 -9 6 0 10 11 10 25 0 16
-6 25 -16 25 -11 0 -14 -5 -10 -16z"/>
<path d="M3360 905 c0 -18 5 -25 20 -25 15 0 20 7 20 25 0 18 -5 25 -20 25
-15 0 -20 -7 -20 -25z"/>
<path d="M3420 905 c0 -18 5 -25 20 -25 15 0 20 7 20 25 0 18 -5 25 -20 25
-15 0 -20 -7 -20 -25z"/>
<path d="M3479 923 c0 -5 -2 -16 -4 -25 -2 -13 3 -18 21 -18 19 0 24 5 24 25
0 18 -5 25 -20 25 -11 0 -20 -3 -21 -7z"/>
<path d="M3538 905 c3 -16 11 -25 23 -25 14 0 19 7 19 25 0 20 -5 25 -24 25
-19 0 -22 -4 -18 -25z"/>
<path d="M3590 905 c0 -18 5 -25 20 -25 15 0 20 7 20 25 0 18 -5 25 -20 25
-15 0 -20 -7 -20 -25z"/>
<path d="M3366 863 c-13 -14 -5 -41 14 -46 16 -4 20 0 20 18 0 22 -22 40 -34
28z"/>
<path d="M3480 846 c-10 -27 -5 -35 20 -29 12 3 20 14 20 27 0 29 -29 30 -40
2z"/>
<path d="M3596 863 c-12 -12 -6 -43 9 -43 8 0 15 9 15 19 0 21 -13 34 -24 24z"/>
<path d="M3420 837 c0 -16 6 -23 20 -23 14 0 20 7 20 23 0 16 -6 23 -20 23
-14 0 -20 -7 -20 -23z"/>
<path d="M3535 850 c-9 -15 4 -30 26 -30 12 0 19 7 19 20 0 21 -33 29 -45 10z"/>
<path d="M3360 791 c0 -21 13 -41 26 -41 8 0 14 10 14 25 0 18 -5 25 -20 25
-11 0 -20 -4 -20 -9z"/>
<path d="M3420 775 c0 -27 1 -28 24 -19 24 9 20 44 -4 44 -15 0 -20 -7 -20
-25z"/>
<path d="M3477 780 c3 -11 14 -20 24 -20 12 0 19 7 19 20 0 14 -7 20 -24 20
-19 0 -23 -4 -19 -20z"/>
<path d="M3530 785 c0 -9 9 -15 25 -15 16 0 25 6 25 15 0 9 -9 15 -25 15 -16
0 -25 -6 -25 -15z"/>
<path d="M3590 784 c0 -9 5 -14 12 -12 18 6 21 28 4 28 -9 0 -16 -7 -16 -16z"/>
<path d="M3342 623 c2 -10 10 -18 18 -18 8 0 16 8 18 18 2 12 -3 17 -18 17
-15 0 -20 -5 -18 -17z"/>
<path d="M3552 623 c2 -10 10 -18 18 -18 8 0 16 8 18 18 2 12 -3 17 -18 17
-15 0 -20 -5 -18 -17z"/>
<path d="M2357 862 c-26 -28 -31 -74 -13 -115 14 -34 18 -37 55 -37 32 0 43 5
52 22 19 35 15 104 -6 128 -23 25 -67 26 -88 2z"/>
</g>
</svg>
