<?xml version="1.0" standalone="no"?>
<!DOCTYPE svg PUBLIC "-//W3C//DTD SVG 20010904//EN"
 "http://www.w3.org/TR/2001/REC-SVG-20010904/DTD/svg10.dtd">
<svg version="1.0" xmlns="http://www.w3.org/2000/svg"
 width="500.000000pt" height="500.000000pt" viewBox="0 0 500.000000 500.000000"
 preserveAspectRatio="xMidYMid meet">

<g transform="translate(0.000000,500.000000) scale(0.100000,-0.100000)"
fill="#000000" stroke="none">
<path d="M0 2500 l0 -2500 2500 0 2500 0 0 2500 0 2500 -2500 0 -2500 0 0
-2500z m3348 1451 c45 -23 77 -56 91 -94 7 -18 11 -166 11 -416 l0 -387 -29
-45 c-16 -24 -130 -145 -254 -268 -162 -162 -230 -222 -241 -218 -17 7 -128
223 -147 287 -11 37 -10 40 50 131 34 51 67 111 73 132 13 42 25 52 81 62 41
8 48 20 17 28 -11 3 -20 10 -20 16 0 5 13 3 30 -7 35 -20 60 -10 74 30 14 39
-45 125 -91 134 -49 9 -86 -10 -110 -59 -20 -41 -23 -43 -108 -66 -47 -13 -82
-27 -76 -31 7 -4 -6 -12 -29 -20 -22 -7 -40 -17 -40 -21 0 -10 -92 -29 -143
-29 -23 0 -64 7 -91 15 -62 19 -107 8 -163 -40 -54 -46 -73 -98 -77 -206 -3
-70 -9 -96 -27 -125 -28 -46 -91 -75 -177 -82 -59 -5 -63 -6 -57 -26 12 -35
18 -156 9 -156 -16 0 -322 314 -338 347 -20 40 -21 125 -1 167 9 18 40 56 70
86 l54 54 0 -56 c-1 -64 18 -112 61 -153 42 -40 47 -25 10 27 -66 93 -44 194
53 242 56 29 105 32 189 15 59 -12 161 -60 195 -91 22 -21 68 -17 60 5 -8 24
-131 98 -198 118 -56 17 -88 21 -160 17 l-90 -4 333 334 c218 218 347 341 373
353 37 17 70 19 418 19 352 0 380 -1 415 -19z m-425 -691 c-3 -12 -8 -19 -11
-16 -5 6 5 36 12 36 2 0 2 -9 -1 -20z m-502 -311 c59 -14 107 -20 164 -18 l80
3 0 -62 c0 -55 3 -65 33 -99 18 -21 72 -96 119 -167 l85 -129 -174 -174 c-196
-197 -238 -231 -302 -239 -79 -11 -128 22 -325 220 l-174 174 39 5 c22 4 85 9
140 13 93 5 101 8 97 25 -6 22 -3 22 -151 6 -112 -13 -113 -13 -108 8 3 11 6
41 6 66 l0 45 83 12 c159 22 234 58 263 129 8 19 14 68 14 118 0 65 3 85 14
85 7 0 51 -9 97 -21z m696 -894 c33 -13 93 -79 82 -89 -2 -2 -39 -26 -83 -53
l-78 -50 23 -17 c13 -9 31 -16 40 -16 25 0 69 39 69 61 0 15 7 19 36 19 35 0
35 -1 29 -32 -4 -21 -23 -48 -53 -76 -40 -37 -43 -42 -22 -38 44 11 49 -1 36
-91 -6 -45 -14 -85 -18 -88 -3 -3 -59 -11 -124 -17 -125 -12 -164 -28 -164
-70 0 -17 11 -18 148 -18 81 0 142 -4 136 -8 -7 -4 -14 -18 -15 -32 -6 -40
-47 -40 -62 -1 -11 30 -13 31 -79 31 -66 0 -68 -1 -68 -25 0 -29 -25 -43 -49
-28 -9 6 -16 20 -16 31 0 12 -4 24 -8 28 -13 13 -7 32 17 61 l24 29 -51 133
c-45 119 -54 135 -81 147 -30 13 -30 13 -6 13 36 1 48 -10 63 -54 l14 -39 82
-1 c93 0 112 6 78 24 -13 7 -36 31 -51 54 -23 35 -27 50 -23 90 5 56 32 90 92
118 48 22 37 22 82 4z m-445 -297 c0 -46 1 -90 0 -98 -4 -41 10 -39 48 9 37
46 44 51 81 51 l41 0 -51 -63 -50 -64 54 -74 54 -74 -30 -3 c-44 -5 -54 1 -95
58 -39 54 -56 63 -53 28 1 -13 1 -38 1 -55 -2 -31 -4 -33 -37 -33 l-35 0 0
200 0 200 35 0 35 0 2 -82z m-1077 -78 c26 -77 48 -140 50 -140 2 0 15 37 30
83 15 45 36 108 47 140 l21 57 48 0 49 0 0 -190 0 -190 -37 0 -38 0 2 127 c2
146 1 145 -59 -29 l-33 -98 -35 0 -35 1 -40 121 -40 122 -3 -122 -3 -122 -37
0 -37 0 0 190 0 190 52 0 51 0 47 -140z m545 21 c79 -55 77 -186 -3 -245 -36
-26 -121 -27 -161 -1 -56 37 -77 136 -42 203 35 67 141 89 206 43z m358 -7
c20 -23 22 -35 22 -140 l0 -114 -35 0 -35 0 0 98 c0 107 -6 122 -53 122 -46 0
-56 -23 -57 -127 l0 -93 -40 0 -40 0 0 140 0 140 35 0 c24 0 35 -5 35 -15 0
-19 -2 -19 45 5 48 25 90 19 123 -16z m913 -69 c19 -52 36 -95 39 -95 3 0 21
43 39 95 l33 95 38 0 37 0 -62 -162 c-72 -192 -78 -203 -111 -225 -24 -15
-107 -23 -119 -11 -4 3 -3 17 1 32 5 22 12 26 43 26 20 0 42 5 49 12 22 22 23
19 -89 306 -8 20 -6 22 30 22 l39 0 33 -95z"/>
<path d="M3052 3760 c-75 -46 -94 -137 -42 -208 33 -45 71 -59 142 -49 101 14
147 148 77 224 -52 55 -119 68 -177 33z"/>
<path d="M2896 3012 c-30 -59 -29 -73 14 -120 l30 -33 108 39 c59 22 129 44
156 48 54 10 66 23 41 48 -22 21 -28 20 -62 -8 -16 -13 -58 -30 -102 -40 -97
-21 -108 -21 -115 8 -3 13 -14 43 -24 67 l-19 44 -27 -53z"/>
<path d="M2328 2898 c2 -29 8 -61 13 -70 13 -25 11 -76 -6 -107 -14 -28 -105
-111 -121 -111 -5 0 -17 -7 -27 -14 -16 -12 -15 -17 18 -72 19 -32 35 -64 35
-71 0 -7 5 -13 11 -13 11 0 9 29 -6 100 -5 22 3 31 62 70 37 25 85 62 107 82
38 37 39 39 34 95 -9 97 -26 141 -61 153 -59 20 -65 16 -59 -42z"/>
<path d="M2313 2523 c-30 -3 -43 -9 -43 -19 0 -8 6 -16 13 -19 6 -2 146 -5
309 -7 286 -3 297 -3 280 14 -15 15 -46 20 -192 28 -172 9 -283 10 -367 3z"/>
<path d="M3027 1982 c-15 -16 -24 -72 -12 -72 14 0 95 57 95 66 0 28 -60 32
-83 6z"/>
<path d="M2870 1741 c0 -17 12 -41 21 -41 5 0 9 11 9 25 0 16 -6 25 -15 25 -8
0 -15 -4 -15 -9z"/>
<path d="M2920 1725 c0 -18 5 -25 20 -25 15 0 20 7 20 25 0 18 -5 25 -20 25
-15 0 -20 -7 -20 -25z"/>
<path d="M2976 1734 c-8 -21 1 -34 25 -34 14 0 19 7 19 25 0 29 -34 36 -44 9z"/>
<path d="M3030 1725 c0 -20 5 -25 25 -25 20 0 25 5 25 25 0 20 -5 25 -25 25
-20 0 -25 -5 -25 -25z"/>
<path d="M3090 1725 c0 -29 34 -36 44 -9 8 21 -1 34 -25 34 -14 0 -19 -7 -19
-25z"/>
<path d="M3150 1724 c0 -33 33 -30 38 4 3 17 -2 22 -17 22 -16 0 -21 -6 -21
-26z"/>
<path d="M2920 1665 c0 -18 5 -25 20 -25 15 0 20 7 20 25 0 18 -5 25 -20 25
-15 0 -20 -7 -20 -25z"/>
<path d="M2977 1683 c-4 -3 -7 -15 -7 -25 0 -13 7 -18 25 -18 20 0 25 5 25 25
0 18 -5 25 -18 25 -10 0 -22 -3 -25 -7z"/>
<path d="M3037 1683 c-4 -3 -7 -15 -7 -25 0 -13 7 -18 25 -18 20 0 25 5 25 25
0 18 -5 25 -18 25 -10 0 -22 -3 -25 -7z"/>
<path d="M3090 1665 c0 -20 5 -25 26 -25 20 0 25 4 20 16 -3 9 -6 20 -6 25 0
5 -9 9 -20 9 -15 0 -20 -7 -20 -25z"/>
<path d="M3150 1665 c0 -16 6 -25 15 -25 9 0 15 9 15 25 0 16 -6 25 -15 25 -9
0 -15 -9 -15 -25z"/>
<path d="M2920 1611 c0 -21 13 -41 26 -41 8 0 14 10 14 25 0 18 -5 25 -20 25
-11 0 -20 -4 -20 -9z"/>
<path d="M2973 1600 c-1 -15 4 -20 23 -20 17 0 24 5 24 20 0 14 -7 20 -23 20
-16 0 -23 -6 -24 -20z"/>
<path d="M3030 1599 c0 -15 5 -20 22 -17 34 5 37 38 4 38 -20 0 -26 -5 -26
-21z"/>
<path d="M3090 1605 c0 -9 9 -15 23 -15 14 0 24 6 24 15 0 9 -10 15 -24 15
-14 0 -23 -6 -23 -15z"/>
<path d="M3150 1605 c0 -8 5 -15 10 -15 6 0 10 7 10 15 0 8 -4 15 -10 15 -5 0
-10 -7 -10 -15z"/>
<path d="M2907 1463 c-4 -3 -7 -12 -7 -20 0 -15 26 -18 34 -4 7 11 -18 33 -27
24z"/>
<path d="M3117 1464 c-14 -15 -6 -34 14 -34 14 0 19 5 17 17 -3 18 -20 27 -31
17z"/>
<path d="M2009 1643 c-8 -9 -14 -37 -14 -63 0 -26 6 -54 14 -63 18 -23 74 -22
94 1 24 26 23 104 -1 125 -24 22 -76 22 -93 0z"/>
</g>
</svg>
